<svg width="40" height="40" viewBox="0 0 40 40" fill="none" xmlns="http://www.w3.org/2000/svg">
  <circle cx="20" cy="20" r="20" fill="#E75A87"/>
  <path d="M20 10C16.13 10 13 13.13 13 17C13 19.38 14.19 21.47 16 22.74V25C16 26.1 16.9 27 18 27H22C23.1 27 24 26.1 24 25V22.74C25.81 21.47 27 19.38 27 17C27 13.13 23.87 10 20 10ZM22 25H18V24H22V25ZM22 23H18V22H22V23ZM22.85 20.85L22 21.29V21H18V21.29L17.15 20.85C15.8 20.11 15 18.65 15 17C15 14.24 17.24 12 20 12C22.76 12 25 14.24 25 17C25 18.65 24.2 20.11 22.85 20.85Z" fill="white"/>
</svg>